<?xml version="1.0" encoding="UTF-8" standalone="no"?>
<!DOCTYPE svg PUBLIC "-//W3C//DTD SVG 1.1//EN" "http://www.w3.org/Graphics/SVG/1.1/DTD/svg11.dtd">
<!-- Created with Vectornator (http://vectornator.io/) -->
<svg height="100%" stroke-miterlimit="10" style="fill-rule:nonzero;clip-rule:evenodd;stroke-linecap:round;stroke-linejoin:round;" version="1.1" viewBox="0 0 960 572" width="100%" xml:space="preserve" xmlns="http://www.w3.org/2000/svg" xmlns:vectornator="http://vectornator.io" xmlns:xlink="http://www.w3.org/1999/xlink">
<defs/>
<g id="Untitled" vectornator:layerName="Untitled">
<path d="M450.889 363.748C449.598 327.573 462.748 297.821 488.035 273.037C505.716 255.707 526.446 243.816 550.917 239.724C594.859 232.377 633.28 243.364 664.677 275.939C680.098 291.939 691.17 310.488 695.914 332.251C700.143 351.647 700.235 371.195 695.038 390.589C684.984 428.11 662.166 455.319 627.825 472.764C606.252 483.722 582.891 485.932 559.203 483.039C511.516 477.215 480.373 449.068 460.207 407.296C453.737 393.893 451.041 379.219 450.889 363.748M522.474 266.762C493.856 285.107 474.581 309.861 468.916 344.149C466.119 361.083 467.324 377.721 472.463 393.953C477.507 409.882 486.601 423.479 498.103 435.591C530.04 469.225 575.915 477.723 615.405 461.226C650.006 446.772 672.075 419.819 679.943 382.896C685.841 355.219 681.061 328.746 666.158 304.306C635.662 254.296 573.217 237.667 522.474 266.762Z" fill="#e4e4e4" fill-rule="nonzero" opacity="1" stroke="none" vectornator:layerName="path"/>
<path d="M384.342 440.401C368.689 458.836 350.085 472.281 327.005 479.013C309.495 484.121 291.608 485.346 273.598 482.954C225.979 476.631 194.549 448.636 175.247 406.431C164.087 382.028 162.827 355.89 169.81 329.769C180.515 289.718 206.419 262.64 243.678 246.36C263.513 237.693 284.729 235.913 306.35 238.623C348.795 243.943 379.144 267.005 399.904 303.158C415.837 330.904 417.473 360.926 410.059 391.658C405.646 409.949 396.706 425.889 384.342 440.401M397.316 362.465C397.532 349.887 395.996 337.544 391.465 325.771C377.277 288.905 352.091 263.539 312.894 255.021C273.855 246.537 240.25 258.035 212.818 287.01C196.757 303.974 186.68 323.846 183.629 347.34C181.613 362.863 182.944 377.961 187.363 392.71C192.402 409.528 201.957 423.767 214.164 436.423C246.052 469.484 292.33 477.918 330.682 461.081C372.31 442.805 395.135 409.663 397.316 362.465Z" fill="#e4e4e4" fill-rule="nonzero" opacity="1" stroke="none" vectornator:layerName="path"/>
<path d="M845.216 437.789C818.881 410.417 792.796 383.296 766.711 356.175C766.18 356.45 765.65 356.726 765.12 357.001C765.12 397.197 765.12 437.392 765.12 477.815C759.304 477.815 754.228 477.815 748.533 477.815C748.533 475.558 748.533 473.603 748.533 471.649C748.532 345.663 748.562 219.676 748.416 93.6895C748.41 88.8 750.033 87.8706 754.42 87.9929C765.071 88.2896 765.077 88.1046 765.076 98.8821C765.068 171.541 765.06 244.2 765.053 316.859C765.052 318.783 765.053 320.708 765.053 324.193C769.052 320.979 771.912 318.847 774.586 316.504C800.982 293.376 827.393 270.265 853.661 246.992C856.901 244.122 860.121 242.817 864.393 243.122C868.764 243.434 873.176 243.191 877.57 243.191C877.69 243.661 877.811 244.131 877.931 244.602C870.97 250.717 864.024 256.85 857.044 262.944C830.729 285.916 804.402 308.874 778.082 331.841C777.581 332.278 777.171 332.849 776.615 333.186C771.988 335.994 772.885 338.317 776.349 341.924C818.546 385.852 860.563 429.955 902.618 474.02C903.517 474.962 904.322 475.995 906.01 477.964C898.167 477.964 891.333 478.098 884.514 477.833C883.357 477.788 882.182 476.109 881.157 475.048C869.244 462.727 857.358 450.38 845.216 437.789Z" fill="#e7e7e7" fill-rule="nonzero" opacity="1" stroke="none" vectornator:layerName="path"/>
<path d="M68.7217 190C68.7217 157.336 68.8259 125.171 68.6135 93.0082C68.58 87.9347 70.0078 86.3751 75.1121 86.5635C85.8036 86.9581 85.8135 86.689 85.8135 97.5456C85.814 195.538 85.8794 293.53 85.7504 391.521C85.7291 407.733 88.5399 423.015 97.9634 436.481C111.602 455.971 130.392 466.513 154.193 467.999C155.335 468.07 156.47 468.231 157.921 468.383C157.921 472.963 157.921 477.36 157.921 483.287C149.263 482.051 140.736 481.78 132.774 479.518C109.576 472.927 91.5964 459.16 79.4849 438.07C70.9169 423.15 68.723 406.814 68.7227 389.983C68.7216 323.488 68.7217 256.994 68.7217 190Z" fill="#e2e2e2" fill-rule="nonzero" opacity="1" stroke="none" vectornator:layerName="path"/>
</g>
</svg>
